<mxfile host="Electron" modified="2024-09-04T08:48:38.318Z" agent="Mozilla/5.0 (Windows NT 10.0; Win64; x64) AppleWebKit/537.36 (KHTML, like Gecko) draw.io/23.1.5 Chrome/120.0.6099.109 Electron/28.1.0 Safari/537.36" etag="kp7ZYT3FqPYVhXBc5AAg" version="23.1.5" type="device">
  <diagram name="Страница — 1" id="LfoU9QoPmFEprJm1lKhH">
    <mxGraphModel dx="1219" dy="735" grid="1" gridSize="10" guides="1" tooltips="1" connect="1" arrows="1" fold="1" page="1" pageScale="1" pageWidth="1169" pageHeight="827" math="0" shadow="0">
      <root>
        <mxCell id="0" />
        <mxCell id="1" parent="0" />
        <mxCell id="3mFMhGNw2TGjmfY9gjBS-1" value="&lt;p data-pm-slice=&quot;1 1 []&quot; class=&quot;&quot;&gt;Пользователь&lt;/p&gt;" style="swimlane;horizontal=0;whiteSpace=wrap;html=1;" vertex="1" parent="1">
          <mxGeometry x="40" y="160" width="870" height="140" as="geometry" />
        </mxCell>
        <mxCell id="3mFMhGNw2TGjmfY9gjBS-7" value="" style="points=[[0.145,0.145,0],[0.5,0,0],[0.855,0.145,0],[1,0.5,0],[0.855,0.855,0],[0.5,1,0],[0.145,0.855,0],[0,0.5,0]];shape=mxgraph.bpmn.event;html=1;verticalLabelPosition=bottom;labelBackgroundColor=#ffffff;verticalAlign=top;align=center;perimeter=ellipsePerimeter;outlineConnect=0;aspect=fixed;outline=standard;symbol=general;" vertex="1" parent="3mFMhGNw2TGjmfY9gjBS-1">
          <mxGeometry x="95" y="58" width="50" height="50" as="geometry" />
        </mxCell>
        <mxCell id="3mFMhGNw2TGjmfY9gjBS-8" value="&lt;pre&gt;&lt;code spellcheck=&quot;false&quot;&gt;Запрос на въезд&lt;/code&gt;&lt;/pre&gt;" style="text;html=1;align=center;verticalAlign=middle;resizable=0;points=[];autosize=1;strokeColor=none;fillColor=none;" vertex="1" parent="3mFMhGNw2TGjmfY9gjBS-1">
          <mxGeometry x="55" y="20" width="130" height="50" as="geometry" />
        </mxCell>
        <mxCell id="3mFMhGNw2TGjmfY9gjBS-27" value="" style="points=[[0.145,0.145,0],[0.5,0,0],[0.855,0.145,0],[1,0.5,0],[0.855,0.855,0],[0.5,1,0],[0.145,0.855,0],[0,0.5,0]];shape=mxgraph.bpmn.event;html=1;verticalLabelPosition=bottom;labelBackgroundColor=#ffffff;verticalAlign=top;align=center;perimeter=ellipsePerimeter;outlineConnect=0;aspect=fixed;outline=eventNonint;symbol=message;" vertex="1" parent="3mFMhGNw2TGjmfY9gjBS-1">
          <mxGeometry x="740" y="70" width="50" height="50" as="geometry" />
        </mxCell>
        <mxCell id="3mFMhGNw2TGjmfY9gjBS-3" value="&lt;p data-pm-slice=&quot;1 1 []&quot; class=&quot;&quot;&gt;Система управления парковкой&lt;/p&gt;" style="swimlane;childLayout=stackLayout;resizeParent=1;resizeParentMax=0;horizontal=0;startSize=20;horizontalStack=0;html=1;" vertex="1" parent="1">
          <mxGeometry x="40" y="330" width="870" height="480" as="geometry" />
        </mxCell>
        <mxCell id="3mFMhGNw2TGjmfY9gjBS-4" value="&lt;p data-pm-slice=&quot;1 1 []&quot; class=&quot;&quot;&gt;Распознавание номеров&lt;/p&gt;" style="swimlane;startSize=20;horizontal=0;html=1;" vertex="1" parent="3mFMhGNw2TGjmfY9gjBS-3">
          <mxGeometry x="20" width="850" height="180" as="geometry">
            <mxRectangle x="20" width="850" height="50" as="alternateBounds" />
          </mxGeometry>
        </mxCell>
        <mxCell id="3mFMhGNw2TGjmfY9gjBS-10" value="&lt;pre&gt;&lt;code spellcheck=&quot;false&quot;&gt;Распознавание&lt;br/&gt;номера&lt;/code&gt;&lt;/pre&gt;" style="points=[[0.25,0,0],[0.5,0,0],[0.75,0,0],[1,0.25,0],[1,0.5,0],[1,0.75,0],[0.75,1,0],[0.5,1,0],[0.25,1,0],[0,0.75,0],[0,0.5,0],[0,0.25,0]];shape=mxgraph.bpmn.task;whiteSpace=wrap;rectStyle=rounded;size=10;html=1;container=1;expand=0;collapsible=0;taskMarker=service;" vertex="1" parent="3mFMhGNw2TGjmfY9gjBS-4">
          <mxGeometry x="200" y="50" width="120" height="80" as="geometry" />
        </mxCell>
        <mxCell id="3mFMhGNw2TGjmfY9gjBS-9" value="&lt;pre&gt;&lt;code spellcheck=&quot;false&quot;&gt;Захват&lt;br/&gt;изображения&lt;/code&gt;&lt;/pre&gt;" style="points=[[0.25,0,0],[0.5,0,0],[0.75,0,0],[1,0.25,0],[1,0.5,0],[1,0.75,0],[0.75,1,0],[0.5,1,0],[0.25,1,0],[0,0.75,0],[0,0.5,0],[0,0.25,0]];shape=mxgraph.bpmn.task;whiteSpace=wrap;rectStyle=rounded;size=10;html=1;container=1;expand=0;collapsible=0;taskMarker=service;" vertex="1" parent="3mFMhGNw2TGjmfY9gjBS-4">
          <mxGeometry x="40" y="50" width="120" height="80" as="geometry" />
        </mxCell>
        <mxCell id="3mFMhGNw2TGjmfY9gjBS-24" style="edgeStyle=orthogonalEdgeStyle;rounded=0;orthogonalLoop=1;jettySize=auto;html=1;entryX=0;entryY=0.5;entryDx=0;entryDy=0;entryPerimeter=0;" edge="1" parent="3mFMhGNw2TGjmfY9gjBS-4" source="3mFMhGNw2TGjmfY9gjBS-9" target="3mFMhGNw2TGjmfY9gjBS-10">
          <mxGeometry relative="1" as="geometry" />
        </mxCell>
        <mxCell id="3mFMhGNw2TGjmfY9gjBS-5" value="&lt;p data-pm-slice=&quot;1 1 []&quot; class=&quot;&quot;&gt;Управление доступом&lt;/p&gt;" style="swimlane;startSize=20;horizontal=0;html=1;" vertex="1" parent="3mFMhGNw2TGjmfY9gjBS-3">
          <mxGeometry x="20" y="180" width="850" height="170" as="geometry" />
        </mxCell>
        <mxCell id="3mFMhGNw2TGjmfY9gjBS-11" value="&lt;pre&gt;&lt;code spellcheck=&quot;false&quot;&gt;Номер найден в базе данных?&lt;/code&gt;&lt;/pre&gt;" style="points=[[0.25,0.25,0],[0.5,0,0],[0.75,0.25,0],[1,0.5,0],[0.75,0.75,0],[0.5,1,0],[0.25,0.75,0],[0,0.5,0]];shape=mxgraph.bpmn.gateway2;html=1;verticalLabelPosition=bottom;labelBackgroundColor=#ffffff;verticalAlign=top;align=center;perimeter=rhombusPerimeter;outlineConnect=0;outline=none;symbol=none;" vertex="1" parent="3mFMhGNw2TGjmfY9gjBS-5">
          <mxGeometry x="427.5" y="90" width="45" height="40" as="geometry" />
        </mxCell>
        <mxCell id="3mFMhGNw2TGjmfY9gjBS-21" value="шлагбаум открыт" style="points=[[0.145,0.145,0],[0.5,0,0],[0.855,0.145,0],[1,0.5,0],[0.855,0.855,0],[0.5,1,0],[0.145,0.855,0],[0,0.5,0]];shape=mxgraph.bpmn.event;html=1;verticalLabelPosition=bottom;labelBackgroundColor=#ffffff;verticalAlign=top;align=center;perimeter=ellipsePerimeter;outlineConnect=0;aspect=fixed;outline=throwing;symbol=general;" vertex="1" parent="3mFMhGNw2TGjmfY9gjBS-5">
          <mxGeometry x="720" y="10" width="50" height="50" as="geometry" />
        </mxCell>
        <mxCell id="3mFMhGNw2TGjmfY9gjBS-20" style="edgeStyle=orthogonalEdgeStyle;rounded=0;orthogonalLoop=1;jettySize=auto;html=1;" edge="1" parent="3mFMhGNw2TGjmfY9gjBS-5" source="3mFMhGNw2TGjmfY9gjBS-11" target="3mFMhGNw2TGjmfY9gjBS-21">
          <mxGeometry relative="1" as="geometry">
            <mxPoint x="460" y="30" as="targetPoint" />
            <Array as="points">
              <mxPoint x="510" y="30" />
              <mxPoint x="510" y="30" />
            </Array>
          </mxGeometry>
        </mxCell>
        <mxCell id="3mFMhGNw2TGjmfY9gjBS-23" value="да" style="edgeLabel;html=1;align=center;verticalAlign=middle;resizable=0;points=[];" vertex="1" connectable="0" parent="3mFMhGNw2TGjmfY9gjBS-20">
          <mxGeometry x="0.1875" relative="1" as="geometry">
            <mxPoint as="offset" />
          </mxGeometry>
        </mxCell>
        <mxCell id="3mFMhGNw2TGjmfY9gjBS-18" value="доступ ограничен" style="points=[[0.145,0.145,0],[0.5,0,0],[0.855,0.145,0],[1,0.5,0],[0.855,0.855,0],[0.5,1,0],[0.145,0.855,0],[0,0.5,0]];shape=mxgraph.bpmn.event;html=1;verticalLabelPosition=bottom;labelBackgroundColor=#ffffff;verticalAlign=top;align=center;perimeter=ellipsePerimeter;outlineConnect=0;aspect=fixed;outline=throwing;symbol=general;" vertex="1" parent="3mFMhGNw2TGjmfY9gjBS-5">
          <mxGeometry x="620" y="85" width="50" height="50" as="geometry" />
        </mxCell>
        <mxCell id="3mFMhGNw2TGjmfY9gjBS-17" style="edgeStyle=orthogonalEdgeStyle;rounded=0;orthogonalLoop=1;jettySize=auto;html=1;" edge="1" parent="3mFMhGNw2TGjmfY9gjBS-5" source="3mFMhGNw2TGjmfY9gjBS-11" target="3mFMhGNw2TGjmfY9gjBS-18">
          <mxGeometry relative="1" as="geometry">
            <mxPoint x="750" y="70" as="targetPoint" />
          </mxGeometry>
        </mxCell>
        <mxCell id="3mFMhGNw2TGjmfY9gjBS-22" value="нет" style="edgeLabel;html=1;align=center;verticalAlign=middle;resizable=0;points=[];" vertex="1" connectable="0" parent="3mFMhGNw2TGjmfY9gjBS-17">
          <mxGeometry x="-0.3142" y="1" relative="1" as="geometry">
            <mxPoint as="offset" />
          </mxGeometry>
        </mxCell>
        <mxCell id="3mFMhGNw2TGjmfY9gjBS-14" style="edgeStyle=orthogonalEdgeStyle;rounded=0;orthogonalLoop=1;jettySize=auto;html=1;entryX=0.5;entryY=1;entryDx=0;entryDy=0;entryPerimeter=0;exitX=0.5;exitY=0;exitDx=0;exitDy=0;" edge="1" parent="3mFMhGNw2TGjmfY9gjBS-3" source="3mFMhGNw2TGjmfY9gjBS-29" target="3mFMhGNw2TGjmfY9gjBS-11">
          <mxGeometry relative="1" as="geometry">
            <mxPoint x="470" y="400" as="sourcePoint" />
          </mxGeometry>
        </mxCell>
        <mxCell id="3mFMhGNw2TGjmfY9gjBS-15" style="edgeStyle=orthogonalEdgeStyle;rounded=0;orthogonalLoop=1;jettySize=auto;html=1;entryX=0.5;entryY=0;entryDx=0;entryDy=0;entryPerimeter=0;" edge="1" parent="3mFMhGNw2TGjmfY9gjBS-3" source="3mFMhGNw2TGjmfY9gjBS-10" target="3mFMhGNw2TGjmfY9gjBS-28">
          <mxGeometry relative="1" as="geometry">
            <mxPoint x="290" y="400" as="targetPoint" />
            <Array as="points">
              <mxPoint x="280" y="330" />
              <mxPoint x="280" y="330" />
            </Array>
          </mxGeometry>
        </mxCell>
        <mxCell id="3mFMhGNw2TGjmfY9gjBS-6" value="&lt;p data-pm-slice=&quot;1 1 []&quot; class=&quot;&quot;&gt;База данных&lt;/p&gt;" style="swimlane;startSize=20;horizontal=0;html=1;" vertex="1" parent="3mFMhGNw2TGjmfY9gjBS-3">
          <mxGeometry x="20" y="350" width="850" height="130" as="geometry" />
        </mxCell>
        <mxCell id="3mFMhGNw2TGjmfY9gjBS-16" style="edgeStyle=orthogonalEdgeStyle;rounded=0;orthogonalLoop=1;jettySize=auto;html=1;entryX=0;entryY=0.5;entryDx=0;entryDy=0;" edge="1" parent="3mFMhGNw2TGjmfY9gjBS-6" target="3mFMhGNw2TGjmfY9gjBS-29">
          <mxGeometry relative="1" as="geometry">
            <mxPoint x="320" y="70" as="sourcePoint" />
            <mxPoint x="390" y="70" as="targetPoint" />
          </mxGeometry>
        </mxCell>
        <mxCell id="3mFMhGNw2TGjmfY9gjBS-28" value="&lt;pre&gt;&lt;code spellcheck=&quot;false&quot;&gt;Проверка номера&lt;br/&gt;в базе данных&lt;/code&gt;&lt;/pre&gt;" style="points=[[0.25,0,0],[0.5,0,0],[0.75,0,0],[1,0.25,0],[1,0.5,0],[1,0.75,0],[0.75,1,0],[0.5,1,0],[0.25,1,0],[0,0.75,0],[0,0.5,0],[0,0.25,0]];shape=mxgraph.bpmn.task;whiteSpace=wrap;rectStyle=rounded;size=10;html=1;container=1;expand=0;collapsible=0;taskMarker=abstract;" vertex="1" parent="3mFMhGNw2TGjmfY9gjBS-6">
          <mxGeometry x="200" y="50" width="120" height="40" as="geometry" />
        </mxCell>
        <mxCell id="3mFMhGNw2TGjmfY9gjBS-29" value="" style="shape=datastore;html=1;labelPosition=center;verticalLabelPosition=bottom;align=center;verticalAlign=top;" vertex="1" parent="3mFMhGNw2TGjmfY9gjBS-6">
          <mxGeometry x="400" y="43.5" width="100" height="53" as="geometry" />
        </mxCell>
        <mxCell id="3mFMhGNw2TGjmfY9gjBS-25" style="edgeStyle=orthogonalEdgeStyle;rounded=0;orthogonalLoop=1;jettySize=auto;html=1;entryX=0.5;entryY=0;entryDx=0;entryDy=0;entryPerimeter=0;" edge="1" parent="1" source="3mFMhGNw2TGjmfY9gjBS-7" target="3mFMhGNw2TGjmfY9gjBS-9">
          <mxGeometry relative="1" as="geometry" />
        </mxCell>
        <mxCell id="3mFMhGNw2TGjmfY9gjBS-26" style="edgeStyle=orthogonalEdgeStyle;rounded=0;orthogonalLoop=1;jettySize=auto;html=1;dashed=1;" edge="1" parent="1" source="3mFMhGNw2TGjmfY9gjBS-21" target="3mFMhGNw2TGjmfY9gjBS-27">
          <mxGeometry relative="1" as="geometry">
            <mxPoint x="800" y="240" as="targetPoint" />
          </mxGeometry>
        </mxCell>
      </root>
    </mxGraphModel>
  </diagram>
</mxfile>
